<svg width="512" height="80" viewBox="0 0 512 80" fill="none" xmlns="http://www.w3.org/2000/svg">
<path d="M19.456 21.9947C19.0933 20.5227 19.1787 18.9653 19.392 18.1547C19.8827 15.8293 21.4827 13.2267 26.0907 13.2267C30.3787 13.2267 32.896 15.8933 32.896 19.8827C32.896 21.2267 32.896 24.4053 32.896 24.4053H51.1573V19.264C51.1573 3.34933 36.8 0.810669 26.4533 0.810669C13.4613 0.810669 2.83733 5.11999 0.874667 17.088C0.341333 20.3733 0.256 23.2533 1.024 26.944C4.20267 41.8987 30.208 46.2293 33.984 55.7013C34.688 57.472 34.4747 59.712 34.1333 61.0987C33.536 63.552 31.872 66.048 26.9867 66.048C22.4213 66.048 19.6693 63.3813 19.6693 59.392L19.648 52.352H0V57.9413C0 74.304 12.8427 79.232 26.6027 79.232C39.8293 79.232 50.688 74.7307 52.4587 62.4853C53.3333 56.1707 52.672 52.0533 52.3733 50.496C49.3013 35.1147 21.5467 30.5493 19.456 21.9947ZM257.493 22.1653C257.173 20.7147 257.259 19.1787 257.429 18.3893C257.963 16.0427 259.52 13.4827 264.064 13.4827C268.288 13.4827 270.763 16.128 270.763 20.0747C270.763 21.4187 270.763 24.5547 270.763 24.5547H288.811V19.456C288.811 3.69066 274.667 1.216 264.427 1.216C251.541 1.216 241.003 5.46134 239.083 17.3227C238.571 20.544 238.443 23.424 239.253 27.072C242.389 41.8773 268.139 46.1653 271.893 55.5093C272.555 57.28 272.363 59.5413 272.021 60.864C271.467 63.296 269.824 65.7493 264.96 65.7493C260.395 65.7493 257.664 63.1253 257.664 59.1787V52.16H238.251V57.7493C238.251 73.92 250.923 78.8053 264.576 78.8053C277.653 78.8053 288.448 74.3467 290.176 62.2293C291.008 55.9787 290.389 51.904 290.048 50.368C287.04 35.2 259.584 30.6347 257.493 22.1653ZM423.701 62.0587L406.464 3.13601H379.307V75.5627H397.269L396.224 14.7413L414.741 75.5627H440.789V3.13601H422.699L423.701 62.0587ZM78.3573 3.11466L64.7893 76.3093H84.5653L94.784 8.55467L104.747 76.3093H124.373L110.869 3.11466H78.3573ZM188.928 3.11466L179.691 60.3307L170.453 3.11466H140.587L139.008 76.3093H157.312L157.803 8.55467L170.389 76.3093H188.949L201.557 8.55467L202.048 76.3093H220.395L218.752 3.11466H188.928ZM358.997 3.11466H340.48V57.2587C340.501 58.1973 340.48 59.264 340.309 60.032C339.925 61.8453 338.389 65.344 333.269 65.344C328.235 65.344 326.656 61.8453 326.293 60.032C326.101 59.264 326.08 58.1973 326.101 57.2587V3.11466H307.627V55.5733C307.605 56.9173 307.712 59.6907 307.797 60.416C309.077 74.0907 319.851 78.528 333.312 78.528C346.795 78.528 357.568 74.0907 358.869 60.416C358.976 59.6907 359.104 56.9387 359.019 55.5733V3.11466H358.997ZM486.101 35.2427V45.9093H493.611V56.4907C493.632 57.4293 493.589 58.4533 493.419 59.264C493.12 61.248 491.243 64.5973 485.909 64.5973C480.619 64.5973 478.763 61.2267 478.443 59.264C478.315 58.4533 478.251 57.4293 478.251 56.4907V23.04C478.251 21.8667 478.336 20.5653 478.592 19.584C478.955 17.792 480.533 14.2933 485.867 14.2933C491.456 14.2933 492.864 18.0053 493.184 19.584C493.397 20.6293 493.397 22.4 493.397 22.4V26.4533H511.829V24.0427C511.829 24.0427 511.915 21.5467 511.68 19.2C510.293 5.46133 498.987 1.13068 486.016 1.13068C473.024 1.13068 461.931 5.52533 460.331 19.2C460.181 20.4587 459.968 22.6987 459.968 24.0427V54.8053C459.968 56.1493 460.011 57.1733 460.267 59.6267C461.461 72.9813 473.045 77.7173 485.995 77.7173C499.029 77.7173 510.507 72.9813 511.744 59.6267C511.957 57.1733 511.979 56.1493 512.021 54.8053V35.2H486.101V35.2427Z" fill="black"/>
</svg>
