<svg xmlns="http://www.w3.org/2000/svg" width="32" height="32" viewBox="0 0 24 24"><!-- Icon from MingCute Icon by MingCute Design - https://github.com/Richard9394/MingCute/blob/main/LICENSE --><g fill="none" fill-rule="evenodd"><path d="m12.593 23.258l-.011.002l-.071.035l-.02.004l-.014-.004l-.071-.035q-.016-.005-.024.005l-.004.01l-.017.428l.005.02l.01.013l.104.074l.015.004l.012-.004l.104-.074l.012-.016l.004-.017l-.017-.427q-.004-.016-.017-.018m.265-.113l-.013.002l-.185.093l-.01.01l-.003.011l.018.43l.005.012l.008.007l.201.093q.019.005.029-.008l.004-.014l-.034-.614q-.005-.018-.02-.022m-.715.002a.02.02 0 0 0-.027.006l-.006.014l-.034.614q.001.018.017.024l.015-.002l.201-.093l.01-.008l.004-.011l.017-.43l-.003-.012l-.01-.01z"/><path fill="#19c160" d="M16 10c3.154 0 6 2.186 6 5.213c0 1.696-.92 3.153-2.26 4.08c-.044.265-.008.532-.008.799a.903.903 0 0 1-.897.908c-.68 0-1.31-.224-1.843-.645a7 7 0 0 1-.992.071c-3.154 0-6-2.186-6-5.213S12.846 10 16 10M9.5 3c3.777 0 7.149 2.535 7.474 6.062A8 8 0 0 0 16 9c-3.533 0-7 2.473-7 6.209q0 .531.09 1.027a9 9 0 0 1-.926-.094c-.67.549-1.443.858-2.31.858c-.518 0-.937-.434-.937-.97l.004-.197l.017-.397a2.1 2.1 0 0 0-.055-.59C3.17 13.667 2 11.794 2 9.624C2 5.807 5.525 3 9.5 3M14 13a1 1 0 1 0 0 2a1 1 0 0 0 0-2m4 0a1 1 0 1 0 0 2a1 1 0 0 0 0-2M7 6a1 1 0 1 0 0 2a1 1 0 0 0 0-2m5 0a1 1 0 1 0 0 2a1 1 0 0 0 0-2"/></g></svg>